<svg xmlns="http://www.w3.org/2000/svg" viewBox="0 0 800 200" width="800" height="200">
  <defs>
    <linearGradient id="iconGrad" x1="0%" y1="0%" x2="100%" y2="100%">
      <stop offset="0%" style="stop-color:#0072BC;stop-opacity:1" />
      <stop offset="100%" style="stop-color:#00A651;stop-opacity:1" />
    </linearGradient>
  </defs>
  <rect width="140" height="140" x="10" y="30" rx="20" fill="url(#iconGrad)"/>
  <path d="M120 50 L120 75 L135 60 Z" fill="white"/>
  <path d="M30 120 L40 120 L40 130 L30 130 Z" fill="#00A651"/>
  <path d="M30 100 L40 100 L40 110 L30 110 Z" fill="#00A651"/>
  <path d="M30 80 L40 80 L40 90 L30 90 Z" fill="#00A651"/>
  <path d="M30 60 L40 60 L40 70 L30 70 Z" fill="#00A651"/>
  <path d="M70 60 L80 60 L80 65 L70 65 Z M70 70 L100 70 L100 75 L70 75 Z M70 80 L100 80 L100 85 L70 85 Z" fill="white"/>
  <path d="M60 55 L70 55 L70 90 L60 90 Z M60 55 L65 50 L70 55 Z" fill="white"/>
  <path d="M95 100 L115 120 L112 123 L92 103 Z M90 120 L110 100 L113 103 L93 123 Z" fill="white" stroke="white" stroke-width="2"/>
  <rect x="90" y="120" width="25" height="15" rx="3" fill="white"/>
  <text x="170" y="110" font-family="Arial, sans-serif" font-size="70" font-weight="bold" fill="#0072BC">Bill</text>
  <text x="350" y="110" font-family="Arial, sans-serif" font-size="70" font-weight="bold" fill="#00A651">Book</text>
</svg>
